<svg viewBox="0 0 200 200" xmlns="http://www.w3.org/2000/svg">
  <g>
    <path style="opacity:1" fill="#3a6fe5"
          d="M 108.5,91.5 C 106.528,82.5599 105.861,73.2266 106.5,63.5C 106.611,62.8826 106.944,62.3826 107.5,62C 110.167,61.6667 112.833,61.3333 115.5,61C 116.576,59.2739 116.743,57.4406 116,55.5C 111.667,47.8333 107.333,40.1667 103,32.5C 100.966,29.141 98.6324,28.8076 96,31.5C 91.3333,39.5 86.6667,47.5 82,55.5C 81.1751,57.7008 81.6751,59.5341 83.5,61C 86.4262,61.2178 89.2595,61.7178 92,62.5C 92.8249,72.6753 92.6583,82.6753 91.5,92.5C 89.2048,91.5254 87.2048,90.1921 85.5,88.5C 85.0269,87.0937 84.0269,86.427 82.5,86.5C 82.0269,85.0937 81.0269,84.427 79.5,84.5C 74.4854,81.9957 69.8187,78.9957 65.5,75.5C 65.0269,74.0937 64.0269,73.427 62.5,73.5C 62.0269,72.0937 61.0269,71.427 59.5,71.5C 54.4854,68.9957 49.8187,65.9957 45.5,62.5C 45.0269,61.0937 44.0269,60.427 42.5,60.5C 42.0269,59.0937 41.0269,58.427 39.5,58.5C 35.6194,57.1172 32.4527,54.7839 30,51.5C 28.8238,47.7399 29.9904,44.9066 33.5,43C 53.7696,30.3937 73.7696,17.3937 93.5,4C 95.6498,2.41006 97.9832,1.74339 100.5,2C 122.5,16 144.5,30 166.5,44C 169.439,48.018 169.105,51.6847 165.5,55C 146.472,67.1773 127.472,79.344 108.5,91.5 Z"/>
  </g>
  <g>
    <path style="opacity:1" fill="#bfd0f6"
          d="M 106.5,63.5 C 105.167,73.1667 105.167,82.8333 106.5,92.5C 101.577,97.7434 96.5767,97.7434 91.5,92.5C 92.6583,82.6753 92.8249,72.6753 92,62.5C 89.2595,61.7178 86.4262,61.2178 83.5,61C 81.6751,59.5341 81.1751,57.7008 82,55.5C 86.6667,47.5 91.3333,39.5 96,31.5C 98.6324,28.8076 100.966,29.141 103,32.5C 107.333,40.1667 111.667,47.8333 116,55.5C 116.743,57.4406 116.576,59.2739 115.5,61C 112.833,61.3333 110.167,61.6667 107.5,62C 106.944,62.3826 106.611,62.8826 106.5,63.5 Z"/>
  </g>
  <g>
    <path style="opacity:0.51" fill="#9db3f1"
          d="M 39.5,58.5 C 41.0269,58.427 42.0269,59.0937 42.5,60.5C 40.9731,60.573 39.9731,59.9063 39.5,58.5 Z"/>
  </g>
  <g>
    <path style="opacity:0.451" fill="#a6baf3"
          d="M 42.5,60.5 C 44.0269,60.427 45.0269,61.0937 45.5,62.5C 43.9731,62.573 42.9731,61.9063 42.5,60.5 Z"/>
  </g>
  <g>
    <path style="opacity:1" fill="#648eea"
          d="M 106.5,63.5 C 105.861,73.2266 106.528,82.5599 108.5,91.5C 108.158,92.3382 107.492,92.6716 106.5,92.5C 105.167,82.8333 105.167,73.1667 106.5,63.5 Z"/>
  </g>
  <g>
    <path style="opacity:0.49" fill="#9fb6f2"
          d="M 59.5,71.5 C 61.0269,71.427 62.0269,72.0937 62.5,73.5C 60.9731,73.573 59.9731,72.9063 59.5,71.5 Z"/>
  </g>
  <g>
    <path style="opacity:0.435" fill="#a7bbf3"
          d="M 62.5,73.5 C 64.0269,73.427 65.0269,74.0937 65.5,75.5C 63.9731,75.573 62.9731,74.9063 62.5,73.5 Z"/>
  </g>
  <g>
    <path style="opacity:0.514" fill="#9db3f1"
          d="M 79.5,84.5 C 81.0269,84.427 82.0269,85.0937 82.5,86.5C 80.9731,86.573 79.9731,85.9063 79.5,84.5 Z"/>
  </g>
  <g>
    <path style="opacity:0.455" fill="#a5baf3"
          d="M 82.5,86.5 C 84.0269,86.427 85.0269,87.0937 85.5,88.5C 83.9731,88.573 82.9731,87.9063 82.5,86.5 Z"/>
  </g>
  <g>
    <path style="opacity:0.997" fill="#708eeb"
          d="M 119.5,114.5 C 119.5,115.167 119.167,115.5 118.5,115.5C 114.327,114.956 110.327,113.79 106.5,112C 105.409,109.936 105.242,107.769 106,105.5C 110.443,108.634 114.943,111.634 119.5,114.5 Z"/>
  </g>
  <g>
    <path style="opacity:0.999" fill="#567de8"
          d="M 92.5,113.5 C 92.8016,116.059 92.4682,118.393 91.5,120.5C 87.4507,119.307 83.784,117.307 80.5,114.5C 82.0082,112.493 83.8416,110.826 86,109.5C 88.0519,111.058 90.2185,112.392 92.5,113.5 Z"/>
  </g>
  <g>
    <path style="opacity:0.098" fill="#d7e1f9"
          d="M 92.5,113.5 C 93.8003,116.024 93.8003,118.691 92.5,121.5C 91.8933,121.376 91.56,121.043 91.5,120.5C 92.4682,118.393 92.8016,116.059 92.5,113.5 Z"/>
  </g>
  <g>
    <path style="opacity:0.373" fill="#bfd0f6"
          d="M 119.5,114.5 C 120.289,114.783 120.956,115.283 121.5,116C 120.251,116.74 119.251,116.573 118.5,115.5C 119.167,115.5 119.5,115.167 119.5,114.5 Z"/>
  </g>
  <g>
    <path style="opacity:0.999" fill="#6182e9"
          d="M 71.5,118.5 C 77.9155,123.041 84.9155,126.541 92.5,129C 93.435,131.381 93.7683,133.881 93.5,136.5C 82.7636,134.724 73.9303,130.057 67,122.5C 68.6667,121.267 70.1667,119.933 71.5,118.5 Z"/>
  </g>
  <g>
    <path style="opacity:0.999" fill="#5c80e9"
          d="M 105.5,118.5 C 117.754,122.148 130.087,125.648 142.5,129C 150.5,134.333 158.5,139.667 166.5,145C 168.619,147.218 168.952,149.718 167.5,152.5C 161.024,146.424 153.69,141.591 145.5,138C 132.642,133.702 119.642,129.869 106.5,126.5C 105.52,123.914 105.187,121.247 105.5,118.5 Z"/>
  </g>
  <g>
    <path style="opacity:0.998" fill="#597ee8"
          d="M 92.5,143.5 C 92.8016,146.059 92.4682,148.393 91.5,150.5C 76.6746,148.064 63.6746,141.898 52.5,132C 54.3211,130.257 56.3211,128.757 58.5,127.5C 68.5343,135.516 79.8676,140.85 92.5,143.5 Z"/>
  </g>
  <g>
    <path style="opacity:0.998" fill="#5a7ee8"
          d="M 105.5,133.5 C 121.522,135.785 136.522,140.951 150.5,149C 154.314,151.647 157.647,154.813 160.5,158.5C 158.578,159.711 156.745,161.044 155,162.5C 141.006,150.713 124.84,143.547 106.5,141C 105.565,138.619 105.232,136.119 105.5,133.5 Z"/>
  </g>
  <g>
    <path style="opacity:0.999" fill="#577de8"
          d="M 44.5,136.5 C 49.7921,140.818 55.4588,144.652 61.5,148C 79.0173,153.796 96.684,159.13 114.5,164C 121.499,166.828 127.832,170.662 133.5,175.5C 131.953,177.194 130.12,178.527 128,179.5C 121.047,175.543 113.88,172.043 106.5,169C 91.3535,165.13 76.3535,160.797 61.5,156C 52.9016,152.542 45.5683,147.376 39.5,140.5C 41.21,139.113 42.8767,137.779 44.5,136.5 Z"/>
  </g>
  <g>
    <path style="opacity:0.098" fill="#dde6f9"
          d="M 92.5,143.5 C 93.8003,146.024 93.8003,148.691 92.5,151.5C 91.8933,151.376 91.56,151.043 91.5,150.5C 92.4682,148.393 92.8016,146.059 92.5,143.5 Z"/>
  </g>
  <g>
    <path style="opacity:0.999" fill="#5c7fe9"
          d="M 30.5,145.5 C 36.7212,150.536 43.3878,155.036 50.5,159C 66.9718,164.618 83.6385,169.618 100.5,174C 107.48,176.487 113.814,179.987 119.5,184.5C 117.842,186.33 115.842,187.664 113.5,188.5C 109.203,186.351 104.87,184.185 100.5,182C 84.5703,177.081 68.5703,172.414 52.5,168C 44.5651,163.45 37.0651,158.284 30,152.5C 29.4436,150.115 29.6103,147.782 30.5,145.5 Z"/>
  </g>
  <g>
    <path style="opacity:1" fill="#597ee8"
          d="M 105.5,147.5 C 121.492,149.878 135.492,156.378 147.5,167C 145.334,169.535 142.667,170.535 139.5,170C 129.695,162.446 118.695,157.279 106.5,154.5C 105.526,152.257 105.192,149.924 105.5,147.5 Z"/>
  </g>
  <g>
    <path style="opacity:0.902" fill="#a0b4f2"
          d="M 79.5,182.5 C 78.209,182.263 77.209,182.596 76.5,183.5C 75.0267,182.928 73.6934,182.095 72.5,181C 75.1394,180.412 77.4727,180.912 79.5,182.5 Z"/>
  </g>
  <g>
    <path style="opacity:0.998" fill="#6685ea"
          d="M 79.5,182.5 C 88.9972,184.221 97.6639,187.887 105.5,193.5C 103.551,196.316 100.885,197.483 97.5,197C 90.0955,192.974 83.0955,188.474 76.5,183.5C 77.209,182.596 78.209,182.263 79.5,182.5 Z"/>
  </g>
</svg>
