<svg viewBox="0 0 18.035334 17.500378" xmlns="http://www.w3.org/2000/svg">
  <path
    d="M-6.8492015 4.2724668a1.1191255 1.1099671 0 0 0-.4288818.1085303l-5.8524037 2.7963394a1.1191255 1.1099671 0 0 0-.605524.7529759l-1.443828 6.2812846a1.1191255 1.1099671 0 0 0 .151943.851028 1.1191255 1.1099671 0 0 0 .06362.08832l4.0508 5.036555a1.1191255 1.1099671 0 0 0 .874979.417654l6.4961011-.0015a1.1191255 1.1099671 0 0 0 .8749788-.416906l4.0493043-5.037295a1.1191255 1.1099671 0 0 0 .2163114-.939349L.15212657 7.9288154a1.1191255 1.1099671 0 0 0-.60552451-.7529758L-6.3065496 4.3809971a1.1191255 1.1099671 0 0 0-.5426519-.1085303Z"
    style="fill:#326ce5;fill-opacity:1;stroke:none;stroke-width:0;stroke-miterlimit:4;stroke-dasharray:none;stroke-opacity:1"
    transform="translate(15.90951962 -3.872907) scale(1.01489)"/>
  <path
    d="M-6.8523435 3.8176372a1.1814304 1.171762 0 0 0-.4520849.1152668l-6.1787426 2.9512758a1.1814304 1.171762 0 0 0-.639206.794891l-1.523915 6.6308282a1.1814304 1.171762 0 0 0 .160175.89893 1.1814304 1.171762 0 0 0 .06736.09281l4.276094 5.317236a1.1814304 1.171762 0 0 0 .92363.440858l6.8576188-.0015a1.1814304 1.171762 0 0 0 .9236308-.44011l4.2745966-5.317985a1.1814304 1.171762 0 0 0 .228288-.990993L.53894439 7.6775738a1.1814304 1.171762 0 0 0-.6392054-.7941425L-6.2790037 3.9321555a1.1814304 1.171762 0 0 0-.5733398-.1145183Zm.00299.4550789a1.1191255 1.1099671 0 0 1 .5426517.1085303l5.85315169 2.7948425a1.1191255 1.1099671 0 0 1 .60552822.7529759L1.598051 14.21035a1.1191255 1.1099671 0 0 1-.2163123.939348l-4.0493032 5.037304a1.1191255 1.1099671 0 0 1-.8749789.416906l-6.4961006.0015a1.1191255 1.1099671 0 0 1-.874979-.417652l-4.0508-5.036554a1.1191255 1.1099671 0 0 1-.06362-.08832 1.1191255 1.1099671 0 0 1-.151942-.851028l1.443827-6.2812853a1.1191255 1.1099671 0 0 1 .605524-.7529758l5.8524036-2.7963395a1.1191255 1.1099671 0 0 1 .4288819-.1085303z"
    style="color:#000;font-style:normal;font-variant:normal;font-weight:400;font-stretch:normal;font-size:medium;line-height:normal;font-family:Sans;-inkscape-font-specification:Sans;text-indent:0;text-align:start;text-decoration:none;text-decoration-line:none;letter-spacing:normal;word-spacing:normal;text-transform:none;writing-mode:lr-tb;direction:ltr;baseline-shift:baseline;text-anchor:start;display:inline;overflow:visible;visibility:visible;fill:#fff;fill-opacity:1;fill-rule:nonzero;stroke:none;stroke-width:0;stroke-miterlimit:4;stroke-dasharray:none;marker:none;enable-background:accumulate"
    transform="translate(15.90951962 -3.872907) scale(1.01489)"/>
  <path
    d="M5.5709564 8.1928071c0 .621121 2.0725501 1.124639 4.6291696 1.124639 2.556621 0 4.62917-.503518 4.62917-1.124639v3.0423909c0 .62112-2.072549 1.124638-4.62917 1.124638-2.5566195 0-4.6291696-.503518-4.6291696-1.124638z"
    style="fill:#fff;fill-rule:evenodd;stroke:none;stroke-width:.26458332;stroke-linecap:square;stroke-miterlimit:10"
    transform="translate(-1.18245927 -.96381404)"/>
  <path
    d="M5.5709564 8.1928071c0-.621119 2.0725501-1.124637 4.6291696-1.124637 2.556621 0 4.62917.503518 4.62917 1.124637 0 .621121-2.072549 1.124639-4.62917 1.124639-2.5566195 0-4.6291696-.503518-4.6291696-1.124639z"
    style="fill:#fff;fill-opacity:1;fill-rule:evenodd;stroke:none;stroke-width:.26458332;stroke-linecap:square;stroke-miterlimit:10"
    transform="translate(-1.18245927 -.96381404)"/>
  <path
    d="M14.829296 8.1928071c0 .621121-2.072549 1.124639-4.62917 1.124639-2.5566195 0-4.6291696-.503518-4.6291696-1.124639 0-.621119 2.0725501-1.124637 4.6291696-1.124637 2.556621 0 4.62917.503518 4.62917 1.124637v3.0423909c0 .62112-2.072549 1.124638-4.62917 1.124638-2.5566195 0-4.6291696-.503518-4.6291696-1.124638V8.1928071"
    style="fill:none;fill-rule:evenodd;stroke:#326ce5;stroke-width:.26458332;stroke-linecap:butt;stroke-linejoin:round;stroke-miterlimit:10;stroke-opacity:1"
    transform="translate(-1.18245927 -.96381404)"/>
</svg>
